# xmcd
# 
# Track frame offsets:
#     150
#     11676
#     20034
#     28148
#     40509
#     55331
#     65020
#     80309
#     88204
#     109828
#     122146
#     134230
#     159183
#     164448
#     173864
#     186743
#     197353
#     206581
# 
# Disc length: 3060
# 
# Revision: 0
# Processed by: cddbd v1.5.2PL0 Copyright (c) Steve Scherf et al.
# Submitted via: fre:ac v1.0.27
# 
DISCID=020bf212
DTITLE=Heinz Sauer and Michael Wollny - Melancholia
DYEAR=2005
DGENRE=Jazz
TTITLE0=ABC
TTITLE1=Space Cake
TTITLE2=Dry Icarus
TTITLE3=Crows On The Roof
TTITLE4=Welcome To What You Think You Hear
TTITLE5=Blue Print
TTITLE6=Deep River
TTITLE7=Sculptor
TTITLE8=Out Of Diversity
TTITLE9=Trouble With Mutation
TTITLE10=Dreaming Field
TTITLE11=Round Midnight
TTITLE12=Melancholia
TTITLE13=Deep Sea
TTITLE14=Seven Sharp
TTITLE15=Ursa Minor
TTITLE16=Welcome To What You Hear
TTITLE17=Don't Explain
EXTD=YEAR: 2005
EXTT0=
EXTT1=
EXTT2=
EXTT3=
EXTT4=
EXTT5=
EXTT6=
EXTT7=
EXTT8=
EXTT9=
EXTT10=
EXTT11=
EXTT12=
EXTT13=
EXTT14=
EXTT15=
EXTT16=
EXTT17=
PLAYORDER=
